<svg width="219" height="60" viewBox="0 0 219 60" fill="none" xmlns="http://www.w3.org/2000/svg">
<circle cx="30" cy="30" r="30" fill="#3556BF"/>
<path d="M39.5833 34.7917V29.031C39.5833 28.687 39.5833 28.515 39.531 28.3631C39.4846 28.2288 39.409 28.1065 39.3097 28.0051C39.1973 27.8903 39.0434 27.8134 38.7357 27.6595L30 23.2917M14.6667 25.2083V38.2543C14.6667 38.9672 14.6667 39.3236 14.7779 39.6357C14.8762 39.9115 15.0364 40.1612 15.2462 40.3655C15.4836 40.5966 15.8076 40.7452 16.4556 41.0421L28.7223 46.6644C29.1923 46.8798 29.4273 46.9875 29.6721 47.03C29.8891 47.0677 30.1109 47.0677 30.3279 47.03C30.5727 46.9875 30.8077 46.8798 31.2777 46.6644L43.5444 41.0421C44.1924 40.7452 44.5164 40.5966 44.7538 40.3655C44.9636 40.1612 45.1238 39.9115 45.2221 39.6357C45.3333 39.3236 45.3333 38.9672 45.3333 38.2543V25.2083M10.8333 23.2917L29.3143 14.0512C29.5657 13.9255 29.6914 13.8626 29.8233 13.8379C29.9401 13.816 30.0599 13.816 30.1767 13.8379C30.3086 13.8626 30.4343 13.9255 30.6857 14.0512L49.1667 23.2917L30.6857 32.5321C30.4343 32.6579 30.3086 32.7207 30.1767 32.7455C30.0599 32.7674 29.9401 32.7674 29.8233 32.7455C29.6914 32.7207 29.5657 32.6579 29.3143 32.5321L10.8333 23.2917Z" stroke="#1AB69D" stroke-width="2" stroke-linecap="round" stroke-linejoin="round"/>
<path d="M76.1213 43.256C75.46 43.256 74.948 43.0747 74.5853 42.712C74.244 42.328 74.0733 41.8053 74.0733 41.144V23.864H67.8333C67.2786 23.864 66.8413 23.7147 66.5213 23.416C66.2226 23.096 66.0733 22.6693 66.0733 22.136C66.0733 21.5813 66.2226 21.1653 66.5213 20.888C66.8413 20.5893 67.2786 20.44 67.8333 20.44H84.4093C84.964 20.44 85.3906 20.5893 85.6893 20.888C86.0093 21.1653 86.1693 21.5813 86.1693 22.136C86.1693 22.6693 86.0093 23.096 85.6893 23.416C85.3906 23.7147 84.964 23.864 84.4093 23.864H78.1693V41.144C78.1693 41.8053 77.9986 42.328 77.6573 42.712C77.316 43.0747 76.804 43.256 76.1213 43.256ZM93.3363 43.32C91.5656 43.32 90.0403 42.9893 88.7603 42.328C87.4803 41.6667 86.4883 40.728 85.7843 39.512C85.1016 38.296 84.7603 36.856 84.7603 35.192C84.7603 33.5707 85.091 32.152 85.7523 30.936C86.435 29.72 87.363 28.7707 88.5363 28.088C89.731 27.384 91.0856 27.032 92.6003 27.032C93.7096 27.032 94.7016 27.2133 95.5763 27.576C96.4723 27.9387 97.2296 28.4613 97.8483 29.144C98.4883 29.8267 98.9683 30.6587 99.2883 31.64C99.6296 32.6 99.8003 33.688 99.8003 34.904C99.8003 35.288 99.6616 35.5867 99.3843 35.8C99.1283 35.992 98.755 36.088 98.2643 36.088H87.9923V33.784H96.9843L96.4723 34.264C96.4723 33.2827 96.323 32.4613 96.0243 31.8C95.747 31.1387 95.331 30.6373 94.7763 30.296C94.243 29.9333 93.571 29.752 92.7603 29.752C91.8643 29.752 91.0963 29.9653 90.4563 30.392C89.8376 30.7973 89.3576 31.384 89.0163 32.152C88.6963 32.8987 88.5363 33.7947 88.5363 34.84V35.064C88.5363 36.8133 88.9416 38.1253 89.7523 39C90.5843 39.8533 91.8003 40.28 93.4003 40.28C93.955 40.28 94.5736 40.216 95.2563 40.088C95.9603 39.9387 96.6216 39.6933 97.2403 39.352C97.6883 39.096 98.083 38.9893 98.4243 39.032C98.7656 39.0533 99.0323 39.1707 99.2243 39.384C99.4376 39.5973 99.5656 39.864 99.6083 40.184C99.651 40.4827 99.587 40.792 99.4163 41.112C99.267 41.432 99.0003 41.7093 98.6163 41.944C97.8696 42.4133 97.0056 42.7653 96.0243 43C95.0643 43.2133 94.1683 43.32 93.3363 43.32ZM110.2 43.32C108.557 43.32 107.128 42.9893 105.912 42.328C104.696 41.6453 103.757 40.6853 103.096 39.448C102.435 38.2107 102.104 36.76 102.104 35.096C102.104 33.8373 102.285 32.7173 102.648 31.736C103.032 30.7333 103.576 29.8907 104.28 29.208C104.984 28.504 105.837 27.9707 106.84 27.608C107.843 27.224 108.963 27.032 110.2 27.032C110.904 27.032 111.661 27.128 112.472 27.32C113.304 27.512 114.083 27.832 114.808 28.28C115.149 28.4933 115.373 28.7493 115.48 29.048C115.587 29.3467 115.608 29.656 115.544 29.976C115.48 30.2747 115.341 30.5413 115.128 30.776C114.936 30.9893 114.691 31.128 114.392 31.192C114.093 31.2347 113.763 31.16 113.4 30.968C112.931 30.6907 112.451 30.488 111.96 30.36C111.469 30.2107 111 30.136 110.552 30.136C109.848 30.136 109.229 30.2533 108.696 30.488C108.163 30.7013 107.704 31.0213 107.32 31.448C106.957 31.8533 106.68 32.3653 106.488 32.984C106.296 33.6027 106.2 34.3173 106.2 35.128C106.2 36.7067 106.573 37.9547 107.32 38.872C108.088 39.768 109.165 40.216 110.552 40.216C111 40.216 111.459 40.152 111.928 40.024C112.419 39.896 112.909 39.6933 113.4 39.416C113.763 39.224 114.083 39.16 114.36 39.224C114.659 39.288 114.904 39.4373 115.096 39.672C115.288 39.8853 115.405 40.152 115.448 40.472C115.491 40.7707 115.448 41.0693 115.32 41.368C115.213 41.6667 115 41.912 114.68 42.104C113.976 42.5307 113.229 42.84 112.44 43.032C111.651 43.224 110.904 43.32 110.2 43.32ZM120.046 43.256C119.406 43.256 118.915 43.0853 118.574 42.744C118.232 42.3813 118.062 41.8693 118.062 41.208V22.2C118.062 21.5387 118.232 21.0373 118.574 20.696C118.915 20.3547 119.406 20.184 120.046 20.184C120.686 20.184 121.176 20.3547 121.518 20.696C121.88 21.0373 122.062 21.5387 122.062 22.2V30.488H121.614C122.083 29.3573 122.808 28.504 123.79 27.928C124.792 27.3307 125.923 27.032 127.182 27.032C128.44 27.032 129.475 27.2667 130.286 27.736C131.096 28.2053 131.704 28.92 132.11 29.88C132.515 30.8187 132.718 32.0133 132.718 33.464V41.208C132.718 41.8693 132.547 42.3813 132.206 42.744C131.864 43.0853 131.374 43.256 130.734 43.256C130.094 43.256 129.592 43.0853 129.23 42.744C128.888 42.3813 128.718 41.8693 128.718 41.208V33.656C128.718 32.44 128.483 31.5547 128.014 31C127.566 30.4453 126.862 30.168 125.902 30.168C124.728 30.168 123.79 30.5413 123.086 31.288C122.403 32.0133 122.062 32.984 122.062 34.2V41.208C122.062 42.5733 121.39 43.256 120.046 43.256Z" fill="#1AB69D"/>
<path d="M144.685 43.256C143.661 43.256 142.669 43.1707 141.709 43C140.749 42.8293 139.853 42.5733 139.021 42.232C138.21 41.8693 137.474 41.432 136.813 40.92C136.599 40.7707 136.45 40.6 136.365 40.408C136.301 40.1947 136.29 40.0027 136.333 39.832C136.397 39.64 136.493 39.48 136.621 39.352C136.77 39.224 136.941 39.16 137.133 39.16C137.325 39.1387 137.527 39.2027 137.741 39.352C138.722 40.0773 139.757 40.6107 140.845 40.952C141.954 41.2933 143.234 41.464 144.685 41.464C146.711 41.464 148.226 41.0693 149.229 40.28C150.253 39.4907 150.765 38.456 150.765 37.176C150.765 36.1093 150.391 35.2773 149.645 34.68C148.919 34.0827 147.714 33.6133 146.029 33.272L142.797 32.6C140.77 32.1947 139.266 31.512 138.285 30.552C137.303 29.592 136.813 28.312 136.813 26.712C136.813 25.7307 137.005 24.8453 137.389 24.056C137.773 23.2453 138.317 22.552 139.021 21.976C139.725 21.4 140.557 20.9627 141.517 20.664C142.498 20.344 143.575 20.184 144.749 20.184C146.135 20.184 147.405 20.376 148.557 20.76C149.73 21.144 150.797 21.752 151.757 22.584C151.949 22.7333 152.077 22.9147 152.141 23.128C152.205 23.32 152.205 23.512 152.141 23.704C152.077 23.8747 151.981 24.0133 151.853 24.12C151.725 24.2267 151.565 24.2907 151.373 24.312C151.181 24.312 150.978 24.2267 150.765 24.056C149.869 23.3307 148.93 22.808 147.949 22.488C146.989 22.1467 145.922 21.976 144.749 21.976C143.554 21.976 142.509 22.168 141.613 22.552C140.738 22.936 140.055 23.48 139.565 24.184C139.074 24.888 138.829 25.72 138.829 26.68C138.829 27.7893 139.17 28.6747 139.853 29.336C140.535 29.9973 141.634 30.4773 143.149 30.776L146.413 31.448C148.567 31.896 150.167 32.568 151.213 33.464C152.258 34.3387 152.781 35.544 152.781 37.08C152.781 37.9973 152.589 38.84 152.205 39.608C151.842 40.3547 151.309 41.0053 150.605 41.56C149.901 42.1147 149.047 42.5413 148.045 42.84C147.063 43.1173 145.943 43.256 144.685 43.256ZM162.554 43.256C161.402 43.256 160.442 43.0427 159.674 42.616C158.906 42.1893 158.33 41.5813 157.946 40.792C157.562 39.9813 157.37 38.9893 157.37 37.816V29.048H155.002C154.725 29.048 154.501 28.984 154.33 28.856C154.159 28.7067 154.074 28.504 154.074 28.248C154.074 28.0133 154.159 27.832 154.33 27.704C154.501 27.5547 154.725 27.48 155.002 27.48H157.37V23.48C157.37 23.1387 157.455 22.8933 157.626 22.744C157.797 22.5733 158.042 22.488 158.362 22.488C158.661 22.488 158.895 22.5733 159.066 22.744C159.237 22.8933 159.322 23.1387 159.322 23.48V27.48H163.642C163.941 27.48 164.165 27.5547 164.314 27.704C164.463 27.832 164.538 28.0133 164.538 28.248C164.538 28.504 164.463 28.7067 164.314 28.856C164.165 28.984 163.941 29.048 163.642 29.048H159.322V37.56C159.322 38.8613 159.589 39.8533 160.122 40.536C160.655 41.2187 161.541 41.56 162.778 41.56C163.205 41.56 163.557 41.5173 163.834 41.432C164.133 41.3253 164.378 41.272 164.57 41.272C164.719 41.272 164.847 41.336 164.954 41.464C165.082 41.592 165.146 41.7947 165.146 42.072C165.146 42.2427 165.103 42.4133 165.018 42.584C164.954 42.7547 164.826 42.8613 164.634 42.904C164.399 42.9893 164.079 43.064 163.674 43.128C163.269 43.2133 162.895 43.256 162.554 43.256ZM172.889 43.256C171.651 43.256 170.617 43.032 169.785 42.584C168.974 42.136 168.366 41.464 167.961 40.568C167.555 39.672 167.353 38.5627 167.353 37.24V28.28C167.353 27.9387 167.438 27.6827 167.609 27.512C167.779 27.3413 168.025 27.256 168.345 27.256C168.643 27.256 168.878 27.3413 169.049 27.512C169.219 27.6827 169.305 27.9387 169.305 28.28V37.144C169.305 38.6373 169.614 39.7573 170.233 40.504C170.851 41.2293 171.822 41.592 173.145 41.592C174.595 41.592 175.769 41.112 176.665 40.152C177.561 39.1707 178.009 37.8907 178.009 36.312V28.28C178.009 27.9387 178.094 27.6827 178.265 27.512C178.435 27.3413 178.681 27.256 179.001 27.256C179.299 27.256 179.534 27.3413 179.705 27.512C179.875 27.6827 179.961 27.9387 179.961 28.28V42.2C179.961 42.8613 179.651 43.192 179.033 43.192C178.734 43.192 178.499 43.1067 178.329 42.936C178.158 42.7653 178.073 42.52 178.073 42.2V39.032L178.457 39.256C178.051 40.5573 177.347 41.5493 176.345 42.232C175.342 42.9147 174.19 43.256 172.889 43.256ZM191.024 43.256C189.638 43.256 188.422 42.936 187.376 42.296C186.352 41.6347 185.552 40.7067 184.976 39.512C184.422 38.296 184.144 36.8667 184.144 35.224C184.144 33.5813 184.422 32.1627 184.976 30.968C185.531 29.7733 186.32 28.8453 187.344 28.184C188.39 27.5227 189.616 27.192 191.024 27.192C192.475 27.192 193.712 27.5653 194.736 28.312C195.76 29.0587 196.443 30.0613 196.784 31.32H196.432V21.24C196.432 20.8987 196.518 20.6533 196.688 20.504C196.859 20.3333 197.094 20.248 197.392 20.248C197.712 20.248 197.958 20.3333 198.128 20.504C198.299 20.6533 198.384 20.8987 198.384 21.24V42.2C198.384 42.52 198.299 42.7653 198.128 42.936C197.958 43.1067 197.723 43.192 197.424 43.192C197.104 43.192 196.859 43.1067 196.688 42.936C196.518 42.7653 196.432 42.52 196.432 42.2V38.904L196.784 39.128C196.443 40.3867 195.76 41.3893 194.736 42.136C193.712 42.8827 192.475 43.256 191.024 43.256ZM191.28 41.624C192.347 41.624 193.264 41.3787 194.032 40.888C194.822 40.376 195.419 39.64 195.824 38.68C196.251 37.72 196.464 36.568 196.464 35.224C196.464 33.1973 195.995 31.6293 195.056 30.52C194.139 29.4107 192.88 28.856 191.28 28.856C190.235 28.856 189.318 29.112 188.528 29.624C187.76 30.1147 187.163 30.84 186.736 31.8C186.331 32.7387 186.128 33.88 186.128 35.224C186.128 37.272 186.598 38.8507 187.536 39.96C188.475 41.0693 189.723 41.624 191.28 41.624ZM206.775 48.952C206.519 48.952 206.316 48.8773 206.167 48.728C206.017 48.6 205.932 48.4187 205.911 48.184C205.911 47.9707 205.953 47.7467 206.039 47.512L208.247 42.488V43.384L201.975 28.728C201.868 28.472 201.825 28.2373 201.847 28.024C201.889 27.7893 201.985 27.608 202.135 27.48C202.305 27.3307 202.54 27.256 202.839 27.256C203.116 27.256 203.319 27.32 203.447 27.448C203.596 27.576 203.724 27.7787 203.831 28.056L209.527 41.848H208.727L214.423 28.056C214.551 27.7573 214.689 27.5547 214.839 27.448C214.988 27.32 215.201 27.256 215.479 27.256C215.756 27.256 215.959 27.3307 216.087 27.48C216.236 27.608 216.321 27.7787 216.343 27.992C216.364 28.2053 216.321 28.44 216.215 28.696L207.863 48.184C207.735 48.4827 207.585 48.6853 207.415 48.792C207.265 48.8987 207.052 48.952 206.775 48.952Z" fill="#3556BF"/>
</svg>
